# xmcd
#
# Track frame offsets: 
#        150
#        14763
#        32031
#        43176
#        62172
#        80675
#        93740
#        109729
#        130945
#        143047
#
# Disc length: 2042 seconds
#
# Revision: 0
# Processed by: cddbd v1.5.1PL0 Copyright (c) Steve Scherf et al.
# Submitted via: ExactAudioCopy v0.95a3
#
DISCID=8f07f80a
DTITLE=Sarah Stanley - Sarah Stanley
DYEAR=2004
DGENRE=Country
TTITLE0=The Tattoo Song
TTITLE1=I Tried
TTITLE2=This Bottle
TTITLE3=When You Can
TTITLE4=San Antonio
TTITLE5=Tuck Me In
TTITLE6=Doesn't Make Sense
TTITLE7=This I Would Have You Know
TTITLE8=My Bed
TTITLE9=Last Song
EXTD=
EXTT0=
EXTT1=
EXTT2=
EXTT3=
EXTT4=
EXTT5=
EXTT6=
EXTT7=
EXTT8=
EXTT9=
PLAYORDER=
